<svg width="40" height="34" viewBox="0 0 40 34" fill="none" xmlns="http://www.w3.org/2000/svg">
<path d="M20 0C17.3736 0 14.7728 0.450635 12.3463 1.32618C9.91982 2.20172 7.71504 3.48502 5.85786 5.1028C2.10714 8.37007 0 12.8014 0 17.4221C0 25.1226 5.74 31.6559 13.68 33.973C14.68 34.1124 15 33.5723 15 33.1019V30.1576C9.46 31.2029 8.28 27.823 8.28 27.823C7.36 25.8021 6.06 25.262 6.06 25.262C4.24 24.1818 6.2 24.2167 6.2 24.2167C8.2 24.3386 9.26 26.0111 9.26 26.0111C11 28.6593 13.94 27.8753 15.08 27.4572C15.26 26.3247 15.78 25.5582 16.34 25.1226C11.9 24.6871 7.24 23.1888 7.24 16.551C7.24 14.6171 8 13.0665 9.3 11.8296C9.1 11.394 8.4 9.58213 9.5 7.23015C9.5 7.23015 11.18 6.75976 15 9.0072C16.58 8.62392 18.3 8.43228 20 8.43228C21.7 8.43228 23.42 8.62392 25 9.0072C28.82 6.75976 30.5 7.23015 30.5 7.23015C31.6 9.58213 30.9 11.394 30.7 11.8296C32 13.0665 32.76 14.6171 32.76 16.551C32.76 23.2062 28.08 24.6696 23.62 25.1052C24.34 25.6453 25 26.708 25 28.3283V33.1019C25 33.5723 25.32 34.1298 26.34 33.973C34.28 31.6385 40 25.1226 40 17.4221C40 15.1342 39.4827 12.8687 38.4776 10.7549C37.4725 8.64118 35.9993 6.72059 34.1421 5.1028C32.285 3.48502 30.0802 2.20172 27.6537 1.32618C25.2272 0.450635 22.6264 0 20 0Z" fill="#6184D8"/>
</svg>
