<svg width="40" height="34" viewBox="0 0 40 34" fill="none" xmlns="http://www.w3.org/2000/svg">
<path d="M35.5556 0C36.7343 0 37.8648 0.398015 38.6983 1.10649C39.5317 1.81496 40 2.77585 40 3.77778V30.2222C40 31.2241 39.5317 32.185 38.6983 32.8935C37.8648 33.602 36.7343 34 35.5556 34H4.44444C3.2657 34 2.13524 33.602 1.30175 32.8935C0.468252 32.185 0 31.2241 0 30.2222V3.77778C0 2.77585 0.468252 1.81496 1.30175 1.10649C2.13524 0.398015 3.2657 0 4.44444 0H35.5556ZM34.4444 29.2778V19.2667C34.4444 17.6335 33.6812 16.0673 32.3226 14.9125C30.964 13.7577 29.1213 13.1089 27.2 13.1089C25.3111 13.1089 23.1111 14.0911 22.0444 15.5644V13.4678H15.8444V29.2778H22.0444V19.9656C22.0444 18.5111 23.4222 17.3211 25.1333 17.3211C25.9585 17.3211 26.7498 17.5997 27.3332 18.0956C27.9167 18.5916 28.2444 19.2642 28.2444 19.9656V29.2778H34.4444ZM8.62222 10.5022C9.61236 10.5022 10.562 10.1679 11.2621 9.57277C11.9622 8.97766 12.3556 8.17051 12.3556 7.32889C12.3556 5.57222 10.6889 4.13667 8.62222 4.13667C7.62619 4.13667 6.67095 4.47299 5.96664 5.07165C5.26234 5.6703 4.86667 6.48226 4.86667 7.32889C4.86667 9.08556 6.55556 10.5022 8.62222 10.5022ZM11.7111 29.2778V13.4678H5.55556V29.2778H11.7111Z" fill="#6184D8"/>
</svg>
