<svg width="40" height="34" viewBox="0 0 40 34" fill="none" xmlns="http://www.w3.org/2000/svg">
<path d="M40 4C38.5277 4.7 36.9407 5.16 35.2964 5.38C36.979 4.32 38.2792 2.64 38.891 0.62C37.304 1.62 35.5449 2.32 33.6903 2.72C32.1797 1 30.0574 0 27.6482 0C23.1549 0 19.4837 3.84 19.4837 8.58C19.4837 9.26 19.5602 9.92 19.6941 10.54C12.8872 10.18 6.826 6.76 2.79159 1.58C2.08413 2.84 1.6826 4.32 1.6826 5.88C1.6826 8.86 3.11664 11.5 5.33461 13C3.97706 13 2.71511 12.6 1.60612 12V12.06C1.60612 16.22 4.43595 19.7 8.18356 20.48C6.98036 20.8244 5.7172 20.8723 4.49331 20.62C5.01263 22.325 6.02971 23.8168 7.40156 24.8859C8.77342 25.9549 10.4311 26.5474 12.1415 26.58C9.24212 28.9809 5.64818 30.2786 1.95029 30.26C1.30019 30.26 0.650096 30.22 0 30.14C3.63289 32.58 7.95411 34 12.5813 34C27.6482 34 35.9273 20.92 35.9273 9.58C35.9273 9.2 35.9273 8.84 35.9082 8.46C37.5143 7.26 38.891 5.74 40 4Z" fill="#6184D8"/>
</svg>
