<?xml version="1.0" standalone="no"?><svg xmlns="http://www.w3.org/2000/svg" viewBox="0 0 1440 320"><path fill="hsla(204,60%,50%,1)" fill-opacity="1" d="M0,192L40,208C80,224,160,256,240,229.3C320,203,400,117,480,101.3C560,85,640,139,720,154.7C800,171,880,149,960,128C1040,107,1120,85,1200,90.7C1280,96,1360,128,1400,144L1440,160L1440,320L1400,320C1360,320,1280,320,1200,320C1120,320,1040,320,960,320C880,320,800,320,720,320C640,320,560,320,480,320C400,320,320,320,240,320C160,320,80,320,40,320L0,320Z"></path></svg>