<svg xmlns="http://www.w3.org/2000/svg" viewBox="0 0 1440 320"><path fill="hsla(204,60%,50%,1)" fill-opacity="1" d="M0,64L48,106.7C96,149,192,235,288,224C384,213,480,107,576,64C672,21,768,43,864,90.7C960,139,1056,213,1152,229.3C1248,245,1344,203,1392,181.3L1440,160L1440,320L1392,320C1344,320,1248,320,1152,320C1056,320,960,320,864,320C768,320,672,320,576,320C480,320,384,320,288,320C192,320,96,320,48,320L0,320Z"></path></svg><svg data-name="Layer 1" xmlns="http://www.w3.org/2000/svg" viewBox="0 0 1200 120" preserveAspectRatio="none">
          <path d="M985.66,92.83C906.67,72,823.78,31,743.84,14.19c-82.26-17.34-168.06-16.33-250.45.39-57.84,11.73-114,31.07-172,41.86A600.21,600.21,0,0,1,0,27.35V120H1200V95.8C1132.19,118.92,1055.71,111.31,985.66,92.83Z" className="shape-fill"
          fill="#6184D8"></path>
      </svg>