<?xml version="1.0" standalone="no"?>
<!DOCTYPE svg PUBLIC "-//W3C//DTD SVG 20010904//EN"
 "http://www.w3.org/TR/2001/REC-SVG-20010904/DTD/svg10.dtd">
<svg version="1.0" xmlns="http://www.w3.org/2000/svg"
 width="147.000000pt" height="147.000000pt" viewBox="0 0 147.000000 147.000000"
 preserveAspectRatio="xMidYMid meet">
<metadata>
Created by potrace 1.11, written by Peter Selinger 2001-2013
</metadata>
<g transform="translate(0.000000,147.000000) scale(0.100000,-0.100000)"
fill="#000000" stroke="none">
<path d="M610 1459 c-132 -25 -239 -75 -345 -162 -106 -86 -216 -256 -239
-371 -3 -12 -9 -43 -15 -71 -14 -68 -7 -226 14 -305 63 -248 275 -460 525
-527 88 -23 281 -23 370 1 116 30 259 114 344 203 48 50 120 157 146 219 58
135 73 333 36 474 -52 194 -195 373 -376 469 -121 64 -325 95 -460 70z"/>
</g>
</svg>
